<?xml version="1.0" encoding="UTF-8"?>
<svg version="1.1" xmlns="http://www.w3.org/2000/svg" width="500" height="500">
<path d="M0 0 C165 0 330 0 500 0 C500 165 500 330 500 500 C335 500 170 500 0 500 C0 335 0 170 0 0 Z " fill="#FEFDF8" transform="translate(0,0)"/>
<path d="M0 0 C2.475 0.495 2.475 0.495 5 1 C4.44162697 8.36692164 2.22576944 14.90018429 -0.125 21.875 C-13.23235916 61.75934447 -22.07037383 102.98677563 -24 145 C-24.03996094 145.86173828 -24.07992187 146.72347656 -24.12109375 147.61132812 C-24.58671537 159.37293031 -24.77234654 172.88890559 -18 183 C-14.91374568 182.68808081 -13.39920501 182.41486118 -11.21337891 180.14331055 C-6.86971526 173.55675848 -3.03386554 166.80082232 0.625 159.8125 C5.24805559 151.10362084 9.94403518 142.44926812 14.8125 133.875 C15.61276611 132.45574219 15.61276611 132.45574219 16.42919922 131.0078125 C18.82047436 126.7784068 21.24000111 122.57721956 23.77734375 118.43359375 C27.97337163 111.49589329 30.82300935 105.89651854 30.90234375 97.56640625 C31.07826309 92.94324594 32.71120612 89.28879388 36 86 C38.125 86.375 38.125 86.375 40 87 C39.89171875 87.86044922 39.89171875 87.86044922 39.78125 88.73828125 C39.08716052 95.09112799 38.83359299 101.42685635 38.75 107.8125 C38.72873047 108.62436768 38.70746094 109.43623535 38.68554688 110.27270508 C38.65661187 115.29241221 39.30808317 118.60084118 42 123 C50.12246535 122.59387673 55.00595566 117.27226321 60.28222656 111.58911133 C65.50774261 105.709102 68.32417632 100.59257566 70.23046875 92.8359375 C71.21152098 89.22048612 72.68029239 86.89963451 75 84 C76.98 84.495 76.98 84.495 79 85 C79.22512001 89.65717024 78.48579273 93.21921183 77 97.625 C75.72402329 101.42634728 75 103.95441064 75 108 C75.67546875 106.95199219 76.3509375 105.90398437 77.046875 104.82421875 C77.94754413 103.44506914 78.84860651 102.06617629 79.75 100.6875 C80.41515625 99.65206055 80.41515625 99.65206055 81.09375 98.59570312 C85.39976845 92.04168976 85.39976845 92.04168976 89 90 C91.125 89.9375 91.125 89.9375 93 91 C94.88075593 95.50569587 95.30141423 99.58704265 95.5 104.4375 C95.71501036 109.67837751 96.41361968 114.04256151 98 119 C103.32135136 118.23980695 105.49940736 116.85003165 108.8125 112.5625 C113.00277876 107.00070871 113.00277876 107.00070871 114.30859375 100.37109375 C114.34315674 98.96138306 114.34315674 98.96138306 114.37841797 97.52319336 C114.39791504 96.50491455 114.41741211 95.48663574 114.4375 94.4375 C115.82372043 49.17154099 115.82372043 49.17154099 124 34 C125.65 34 127.3 34 129 34 C129.29721701 39.54805088 128.80223676 44.42904647 127.6875 49.875 C123.01285899 72.86780932 121.75615813 96.5911808 122 120 C122.57331055 118.90498169 122.57331055 118.90498169 123.15820312 117.7878418 C124.61259933 115.02015733 126.07479767 112.25676799 127.54199219 109.49584961 C128.47395991 107.73665367 129.39726482 105.97287699 130.3203125 104.20898438 C138.75354658 88.37424167 138.75354658 88.37424167 144 83 C146.74023438 82.20581055 146.74023438 82.20581055 149 82 C148.58565671 86.04549722 147.11250523 88.47275552 144.70996094 91.70458984 C139.01693797 99.45767446 137.6773242 105.30384903 139 115 C139.08362793 115.64759277 139.16725586 116.29518555 139.25341797 116.96240234 C140.41678518 125.53316294 142.56155598 133.3227458 145.9140625 141.328125 C146.82143272 143.56064742 147.49652074 145.65043011 148 148 C146.35 148.33 144.7 148.66 143 149 C139.91950313 145.49593481 138.27618865 142.60305483 137 138.125 C136.67515625 136.99964844 136.3503125 135.87429688 136.015625 134.71484375 C134.31224299 128.48439648 132.62552275 122.25134545 131 116 C127.02777635 123.97092878 124.0667985 131.48486552 121.859375 140.1015625 C121 143 121 143 119 146 C117.68 145.67 116.36 145.34 115 145 C114.34 135.43 113.68 125.86 113 116 C110.69 118.31 108.38 120.62 106 123 C102.86128812 124.56935594 100.46144178 124.35201103 97 124 C91.93817693 120.43371556 90.24523979 115.8517562 89 110 C88.50538242 106.00464244 88.19727783 102.02038607 88 98 C87.64808594 98.59425781 87.29617188 99.18851562 86.93359375 99.80078125 C76.23076923 117.76923077 76.23076923 117.76923077 74 120 C72.00041636 120.04080783 69.99954746 120.04254356 68 120 C67.01 116.535 67.01 116.535 66 113 C65.18208984 113.97839844 65.18208984 113.97839844 64.34765625 114.9765625 C58.51322595 121.73851761 53.01322106 127.47054273 44.3125 130.125 C39.99447959 129.96205583 38.21753622 128.85190711 35 126 C32 121 32 121 32 118 C31.34 118 30.68 118 30 118 C29.73300293 118.70455322 29.46600586 119.40910645 29.19091797 120.13500977 C27.93789149 123.14941439 26.49165897 125.96500118 24.9453125 128.83984375 C24.3363916 129.97478271 23.7274707 131.10972168 23.10009766 132.27905273 C22.44198976 133.4986744 21.78361796 134.7181537 21.125 135.9375 C20.44703343 137.19535646 19.76913703 138.45325074 19.09130859 139.71118164 C18.05983311 141.62456821 17.02779492 143.53764295 15.99429321 145.44993591 C13.86714885 149.38611828 11.75646426 153.33060425 9.65625 157.28125 C-5.08846751 184.89259996 -5.08846751 184.89259996 -14 190 C-17.5625 190.5625 -17.5625 190.5625 -21 190 C-28.83818249 183.94322262 -30.79199318 174.3796741 -32 165 C-32.55162913 158.44868013 -32.53267969 151.8822393 -32.5 145.3125 C-32.49890228 144.40213989 -32.49780457 143.49177979 -32.49667358 142.55383301 C-32.41012457 117.31888887 -28.73305983 92.75340492 -22.56884766 68.29492188 C-22.02823603 66.11391361 -21.52709439 63.92853259 -21.04296875 61.734375 C-10.59941204 14.65212841 -10.59941204 14.65212841 0 0 Z " fill="#1B2F29" transform="translate(191,124)"/>
<path d="M0 0 C3.66681699 2.88814929 6.90178395 5.94301766 10.03515625 9.390625 C10.81890625 10.15375 11.60265625 10.916875 12.41015625 11.703125 C13.27640625 12.59 14.14265625 13.476875 15.03515625 14.390625 C15.669375 15.01710937 16.30359375 15.64359375 16.95703125 16.2890625 C40.98313203 41.25235161 48.75783251 74.27745168 48.30859375 107.87109375 C48.08409663 116.8276399 46.79005918 124.88815355 44.03515625 133.390625 C43.7937793 134.15874512 43.55240234 134.92686523 43.30371094 135.71826172 C35.30817833 160.6251001 19.6908993 186.19052065 -2.96484375 200.390625 C-5.96484375 199.390625 -5.96484375 199.390625 -7.96484375 196.390625 C-7.96484375 195.400625 -7.96484375 194.410625 -7.96484375 193.390625 C-6.453125 192.0234375 -6.453125 192.0234375 -4.27734375 190.515625 C19.71604436 172.48285846 35.1787338 144.23581818 39.4375 114.58984375 C42.71880243 82.81065448 34.13877623 51.09294274 14.34814453 25.95410156 C11.53717067 22.60685786 8.38997769 19.61299831 5.1640625 16.671875 C3.03515625 14.390625 3.03515625 14.390625 1.59765625 11.296875 C-0.32504675 7.72064742 -1.85144859 7.00092588 -5.52734375 5.390625 C-9.42942749 3.59575972 -13.09765625 1.76837065 -16.71484375 -0.546875 C-25.85782928 -6.15969326 -36.5638628 -10.9203409 -46.96484375 -13.609375 C-48.01542969 -13.88652344 -49.06601562 -14.16367188 -50.1484375 -14.44921875 C-75.72949303 -20.22558613 -100.52091705 -15.86745835 -124.96484375 -7.609375 C-124.54221139 -11.30036424 -123.80995946 -14.36381135 -121.96484375 -17.609375 C-118.20637334 -19.89901789 -114.24157627 -20.70495912 -109.96484375 -21.609375 C-108.74667969 -21.89296875 -107.52851563 -22.1765625 -106.2734375 -22.46875 C-102.84512185 -23.2394848 -99.41679391 -23.95325372 -95.96484375 -24.609375 C-94.56878906 -24.88974609 -94.56878906 -24.88974609 -93.14453125 -25.17578125 C-59.98857334 -29.69704824 -26.5146199 -19.79594852 0 0 Z " fill="#1A2D27" transform="translate(323.96484375,146.609375)"/>
<path d="M0 0 C1.38882353 2.77764706 0.71314784 3.99030966 -0.1875 6.9375 C-2.33800738 12.65488342 -5.56459783 15.69856455 -10.15429688 19.60473633 C-28.63320618 35.61774775 -41.1017594 62.91011333 -43 87 C-44.39972071 120.69213221 -38.52746124 153.23910851 -15.20214844 178.984375 C-8.90825182 185.66387237 -2.60669407 191.83447861 5 197 C3.125 201.75 3.125 201.75 2 204 C-2.861192 202.50911398 -5.79238627 199.75101269 -9.375 196.3125 C-9.9522583 195.76577637 -10.5295166 195.21905273 -11.12426758 194.65576172 C-12.25824636 193.57887367 -13.38930651 192.49890193 -14.51708984 191.41552734 C-15.67812103 190.30725293 -16.86056075 189.22139742 -18.05078125 188.14453125 C-37.83907469 169.77306072 -50.92594251 139.05256979 -52.12451172 112.21166992 C-52.98043267 77.71167586 -45.76742101 47.81163396 -23 21 C-22.29875 20.15953125 -21.5975 19.3190625 -20.875 18.453125 C-14.69186272 11.25556676 -7.80433404 5.36547965 0 0 Z " fill="#1A2D27" transform="translate(175,144)"/>
<path d="M0 0 C1.60875 -0.020625 3.2175 -0.04125 4.875 -0.0625 C5.77992188 -0.07410156 6.68484375 -0.08570313 7.6171875 -0.09765625 C10 0 10 0 12 1 C11.979375 2.19625 11.95875 3.3925 11.9375 4.625 C11.93117429 8.18004869 12.30111125 11.50555624 13 15 C12.01 15 11.02 15 10 15 C9.67 13.02 9.34 11.04 9 9 C6.69 8.67 4.38 8.34 2 8 C2 10.31 2 12.62 2 15 C1.34 15 0.68 15 0 15 C0 10.05 0 5.1 0 0 Z " fill="#273933" transform="translate(241,359)"/>
<path d="M0 0 C7.42857143 1 7.42857143 1 11 2 C11 2.66 11 3.32 11 4 C7.7 3.34 4.4 2.68 1 2 C1.33 3.32 1.66 4.64 2 6 C4.99615946 7.3045656 4.99615946 7.3045656 8 8 C8 8.66 8 9.32 8 10 C5.36 9.34 2.72 8.68 0 8 C-0.33 9.65 -0.66 11.3 -1 13 C0.1446875 13.2165625 0.1446875 13.2165625 1.3125 13.4375 C4 14 4 14 7 15 C6.67 15.66 6.34 16.32 6 17 C1.545 16.01 1.545 16.01 -3 15 C-2.22095672 4.44191344 -2.22095672 4.44191344 0 0 Z " fill="#33443E" transform="translate(213,354)"/>
<path d="M0 0 C2.375 0.8125 2.375 0.8125 3.375 2.8125 C3.5625 5.8125 3.5625 5.8125 3.375 8.8125 C1.375 10.8125 1.375 10.8125 -1.125 11.0625 C-3.625 10.8125 -3.625 10.8125 -5.625 8.8125 C-5.96161952 5.6482765 -6.12443411 3.62736618 -4.4375 0.875 C-2.625 -0.1875 -2.625 -0.1875 0 0 Z " fill="#1E312B" transform="translate(234.625,184.1875)"/>
<path d="M0 0 C-1.485 0.86625 -1.485 0.86625 -3 1.75 C-3.99 2.4925 -4.98 3.235 -6 4 C-6 5.32 -6 6.64 -6 8 C-5.05125 7.484375 -4.1025 6.96875 -3.125 6.4375 C-2.09375 5.963125 -1.0625 5.48875 0 5 C0.66 5.33 1.32 5.66 2 6 C-1.75 9 -1.75 9 -4 9 C-3.34 10.32 -2.68 11.64 -2 13 C-1.2575 12.690625 -0.515 12.38125 0.25 12.0625 C2.50692176 11.1905075 4.6450153 10.52332993 7 10 C7 10.66 7 11.32 7 12 C2.05 14.475 2.05 14.475 -3 17 C-4.17192047 15.04480616 -5.3373929 13.0857461 -6.5 11.125 C-7.1496875 10.03445313 -7.799375 8.94390625 -8.46875 7.8203125 C-10 5 -10 5 -10 3 C-3.375 -1.125 -3.375 -1.125 0 0 Z " fill="#33443E" transform="translate(308,343)"/>
<path d="M0 0 C0.78375 0.04125 1.5675 0.0825 2.375 0.125 C3.035 1.445 3.695 2.765 4.375 4.125 C2.065 3.795 -0.245 3.465 -2.625 3.125 C-2.955 4.445 -3.285 5.765 -3.625 7.125 C-2.99851562 7.10179687 -2.37203125 7.07859375 -1.7265625 7.0546875 C-0.90929687 7.03664063 -0.09203125 7.01859375 0.75 7 C1.56210937 6.97679687 2.37421875 6.95359375 3.2109375 6.9296875 C5.375 7.125 5.375 7.125 7.375 9.125 C7.1875 11.625 7.1875 11.625 6.375 14.125 C2.9397952 16.41513653 1.389669 16.30342973 -2.625 16.125 C-3.285 14.805 -3.945 13.485 -4.625 12.125 C-2.60677083 12.38541667 -0.58854167 12.64583333 1.4296875 12.90625 C3.37998344 13.1622485 3.37998344 13.1622485 5.375 13.125 C5.045 12.135 4.715 11.145 4.375 10.125 C2.456875 9.939375 2.456875 9.939375 0.5 9.75 C-3.375 9.375 -3.375 9.375 -5.625 7.125 C-5.20813063 2.95630627 -4.65455455 0.22164545 0 0 Z " fill="#2B3D37" transform="translate(277.625,353.875)"/>
<path d="M0 0 C0.66 0 1.32 0 2 0 C1.67 3.96 1.34 7.92 1 12 C4.96 8.535 4.96 8.535 9 5 C9.66 5.66 10.32 6.32 11 7 C9.40423801 8.50893816 7.79810089 10.00691076 6.1875 11.5 C5.29417969 12.3353125 4.40085938 13.170625 3.48046875 14.03125 C1 16 1 16 -2 16 C-1.85890014 13.89551062 -1.71195825 11.7914123 -1.5625 9.6875 C-1.48128906 8.51574219 -1.40007812 7.34398437 -1.31640625 6.13671875 C-1 3 -1 3 0 0 Z " fill="#2C3E38" transform="translate(186,341)"/>
<path d="M0 0 C2.31 0 4.62 0 7 0 C7.38218767 1.65614657 7.71395102 3.32457024 8 5 C7 6 7 6 3.4375 6.0625 C2.303125 6.041875 1.16875 6.02125 0 6 C0 4.02 0 2.04 0 0 Z " fill="#D3D6D0" transform="translate(243,360)"/>
<path d="M0 0 C0 0.66 0 1.32 0 2 C-4.95 4.475 -4.95 4.475 -10 7 C-10.66 6.01 -11.32 5.02 -12 4 C-11.67 3.01 -11.34 2.02 -11 1 C-10.443125 1.391875 -9.88625 1.78375 -9.3125 2.1875 C-8.1678125 2.5896875 -8.1678125 2.5896875 -7 3 C-1.27272727 0 -1.27272727 0 0 0 Z " fill="#354640" transform="translate(315,353)"/>
<path d="M0 0 C0.33 0 0.66 0 1 0 C1 1.65 1 3.3 1 5 C2.1446875 5.2165625 2.1446875 5.2165625 3.3125 5.4375 C6 6 6 6 9 7 C8.67 7.66 8.34 8.32 8 9 C3.545 8.01 3.545 8.01 -1 7 C-1.04254356 5.00045254 -1.04080783 2.99958364 -1 1 C-0.67 0.67 -0.34 0.34 0 0 Z " fill="#33443E" transform="translate(211,362)"/>
<path d="M0 0 C1.48206495 0.254496 2.96068615 0.52911762 4.4375 0.8125 C5.67306641 1.03873047 5.67306641 1.03873047 6.93359375 1.26953125 C7.95646484 1.63111328 7.95646484 1.63111328 9 2 C9.33 2.99 9.66 3.98 10 5 C7.36 4.34 4.72 3.68 2 3 C1.67 3.99 1.34 4.98 1 6 C0.67 4.02 0.34 2.04 0 0 Z " fill="#465650" transform="translate(211,359)"/>
<path d="M0 0 C-3.75 3 -3.75 3 -6 3 C-6.33 3.99 -6.66 4.98 -7 6 C-7.66 5.34 -8.32 4.68 -9 4 C-8.67 3.01 -8.34 2.02 -8 1 C-2.59770115 -1.29885057 -2.59770115 -1.29885057 0 0 Z " fill="#243731" transform="translate(310,349)"/>
<path d="M0 0 C0.66 0.66 1.32 1.32 2 2 C-1.465 4.97 -1.465 4.97 -5 8 C-5 5 -5 5 -2.5 2.3125 C-1.675 1.549375 -0.85 0.78625 0 0 Z " fill="#273933" transform="translate(195,346)"/>
<path d="M0 0 C0.66 0 1.32 0 2 0 C1.67 3.3 1.34 6.6 1 10 C-1.17766075 5.64467851 -1.03039555 4.53374042 0 0 Z " fill="#43524D" transform="translate(186,341)"/>
</svg>
